<?xml version="1.0" encoding="UTF-8" standalone="no"?>
<svg
   height="16px"
   viewBox="0 0 16 16"
   width="16px"
   xmlns="http://www.w3.org/2000/svg">
  <path
     d="M 7.984375 0 C 7.7285158 0 7.4726562 0.09765625 7.2773438 0.29296875 L 3.2773438 4.2929688 C 2.8867188 4.6835938 2.8867188 5.3164062 3.2773438 5.7070312 C 3.4648438 5.8945312 3.71875 6 3.984375 6 C 4.25 6 4.5039062 5.8945312 4.6914062 5.7070312 L 6.984375 3.4140625 L 6.984375 12 C 6.984375 12.550781 7.433594 13 7.984375 13 C 8.535156 13 8.984375 12.550781 8.984375 12 L 8.984375 3.4140625 L 11.277344 5.7070312 C 11.667969 6.0976562 12.300781 6.0976562 12.691406 5.7070312 C 13.082031 5.3164063 13.082031 4.6835938 12.691406 4.2929688 L 8.6914062 0.29296875 C 8.4960938 0.09765625 8.2402343 0 7.984375 0 z M 1.984375 14 L 1.984375 16 L 13.984375 16 L 13.984375 14 L 1.984375 14 z " fill="context-fill"/>
</svg>
